<?xml version="1.0" encoding="UTF-8" standalone="no"?>
<!DOCTYPE svg PUBLIC "-//W3C//DTD SVG 1.1//EN"
 "http://www.w3.org/Graphics/SVG/1.1/DTD/svg11.dtd">
<!-- Generated by graphviz version 2.38.0 (20140413.2041)
 -->
<!-- Title: ethane Pages: 1 -->
<svg width="350pt" height="188pt"
 viewBox="0.00 0.00 350.00 188.00" xmlns="http://www.w3.org/2000/svg" xmlns:xlink="http://www.w3.org/1999/xlink">
<g id="graph0" class="graph" transform="scale(1 1) rotate(0) translate(4 184)">
<title>ethane</title>
<polygon fill="white" stroke="none" points="-4,4 -4,-184 346,-184 346,4 -4,4"/>
<!-- C_0 -->
<g id="node1" class="node"><title>C_0</title>
<ellipse fill="none" stroke="black" cx="135" cy="-162" rx="27" ry="18"/>
<text text-anchor="middle" x="135" y="-158.3" font-family="Times New Roman,serif" font-size="14.00">C_0</text>
</g>
<!-- H_0 -->
<g id="node2" class="node"><title>H_0</title>
<ellipse fill="none" stroke="black" cx="27" cy="-90" rx="27" ry="18"/>
<text text-anchor="middle" x="27" y="-86.3" font-family="Times New Roman,serif" font-size="14.00">H_0</text>
</g>
<!-- C_0&#45;&#45;H_0 -->
<g id="edge1" class="edge"><title>C_0&#45;&#45;H_0</title>
<path fill="none" stroke="black" d="M116.188,-148.807C96.3652,-135.959 65.3376,-115.848 45.5966,-103.053"/>
</g>
<!-- H_1 -->
<g id="node3" class="node"><title>H_1</title>
<ellipse fill="none" stroke="black" cx="99" cy="-90" rx="27" ry="18"/>
<text text-anchor="middle" x="99" y="-86.3" font-family="Times New Roman,serif" font-size="14.00">H_1</text>
</g>
<!-- C_0&#45;&#45;H_1 -->
<g id="edge2" class="edge"><title>C_0&#45;&#45;H_1</title>
<path fill="none" stroke="black" d="M126.65,-144.765C120.835,-133.456 113.11,-118.437 107.304,-107.147"/>
</g>
<!-- H_2 -->
<g id="node4" class="node"><title>H_2</title>
<ellipse fill="none" stroke="black" cx="171" cy="-90" rx="27" ry="18"/>
<text text-anchor="middle" x="171" y="-86.3" font-family="Times New Roman,serif" font-size="14.00">H_2</text>
</g>
<!-- C_0&#45;&#45;H_2 -->
<g id="edge3" class="edge"><title>C_0&#45;&#45;H_2</title>
<path fill="none" stroke="black" d="M143.35,-144.765C149.165,-133.456 156.89,-118.437 162.696,-107.147"/>
</g>
<!-- C_1 -->
<g id="node5" class="node"><title>C_1</title>
<ellipse fill="none" stroke="black" cx="243" cy="-90" rx="27" ry="18"/>
<text text-anchor="middle" x="243" y="-86.3" font-family="Times New Roman,serif" font-size="14.00">C_1</text>
</g>
<!-- C_0&#45;&#45;C_1 -->
<g id="edge4" class="edge"><title>C_0&#45;&#45;C_1</title>
<path fill="none" stroke="black" d="M153.812,-148.807C173.635,-135.959 204.662,-115.848 224.403,-103.053"/>
</g>
<!-- H_3 -->
<g id="node6" class="node"><title>H_3</title>
<ellipse fill="none" stroke="black" cx="171" cy="-18" rx="27" ry="18"/>
<text text-anchor="middle" x="171" y="-14.3" font-family="Times New Roman,serif" font-size="14.00">H_3</text>
</g>
<!-- C_1&#45;&#45;H_3 -->
<g id="edge5" class="edge"><title>C_1&#45;&#45;H_3</title>
<path fill="none" stroke="black" d="M228.43,-74.8345C216.02,-62.7697 198.269,-45.5119 185.796,-33.3847"/>
</g>
<!-- H_4 -->
<g id="node7" class="node"><title>H_4</title>
<ellipse fill="none" stroke="black" cx="243" cy="-18" rx="27" ry="18"/>
<text text-anchor="middle" x="243" y="-14.3" font-family="Times New Roman,serif" font-size="14.00">H_4</text>
</g>
<!-- C_1&#45;&#45;H_4 -->
<g id="edge6" class="edge"><title>C_1&#45;&#45;H_4</title>
<path fill="none" stroke="black" d="M243,-71.6966C243,-60.8463 243,-46.9167 243,-36.1043"/>
</g>
<!-- H_5 -->
<g id="node8" class="node"><title>H_5</title>
<ellipse fill="none" stroke="black" cx="315" cy="-18" rx="27" ry="18"/>
<text text-anchor="middle" x="315" y="-14.3" font-family="Times New Roman,serif" font-size="14.00">H_5</text>
</g>
<!-- C_1&#45;&#45;H_5 -->
<g id="edge7" class="edge"><title>C_1&#45;&#45;H_5</title>
<path fill="none" stroke="black" d="M257.57,-74.8345C269.98,-62.7697 287.731,-45.5119 300.204,-33.3847"/>
</g>
</g>
</svg>
