<?xml version="1.0" encoding="UTF-8" standalone="no"?>
<!DOCTYPE svg PUBLIC "-//W3C//DTD SVG 1.1//EN"
 "http://www.w3.org/Graphics/SVG/1.1/DTD/svg11.dtd">
<!-- Generated by graphviz version 2.38.0 (20140413.2041)
 -->
<!-- Title: unix Pages: 1 -->
<svg width="432pt" height="393pt"
 viewBox="0.00 0.00 432.00 393.26" xmlns="http://www.w3.org/2000/svg" xmlns:xlink="http://www.w3.org/1999/xlink">
<g id="graph0" class="graph" transform="scale(0.327172 0.327172) rotate(0) translate(4 1198)">
<title>unix</title>
<polygon fill="white" stroke="none" points="-4,4 -4,-1198 1316.41,-1198 1316.41,4 -4,4"/>
<text text-anchor="middle" x="656.203" y="-55.2" font-family="Helvetica,sans-Serif" font-style="oblique" font-size="36.00">Object Oriented Graphs</text>
<text text-anchor="middle" x="656.203" y="-15.2" font-family="Helvetica,sans-Serif" font-style="oblique" font-size="36.00">Stephen North, 3/19/93</text>
<!-- 5th Edition -->
<g id="node1" class="node"><title>5th Edition</title>
<polygon fill="#ee8262" stroke="#ee8262" points="896.733,-1171.81 906.872,-1187.3 874.863,-1194.13 801.949,-1186.82 743.29,-1172.29 747.375,-1160.82 798.558,-1155.51 847.079,-1154.55 875.003,-1159.19 896.733,-1171.81"/>
<text text-anchor="middle" x="832.414" y="-1167.68" font-family="Helvetica-Outline" font-size="14.00">5th Edition</text>
</g>
<!-- 6th Edition -->
<g id="node2" class="node"><title>6th Edition</title>
<polygon fill="deepskyblue" stroke="deepskyblue" points="740.673,-1104.7 650.502,-1112.64 532.57,-1093.96 558.93,-1074.95 669.393,-1080.64 740.673,-1104.7"/>
<text text-anchor="middle" x="630.414" y="-1089.68" font-family="Helvetica-Outline" font-size="14.00">6th Edition</text>
</g>
<!-- 5th Edition&#45;&gt;6th Edition -->
<g id="edge1" class="edge"><title>5th Edition&#45;&gt;6th Edition</title>
<path fill="none" stroke="black" d="M793.944,-1155.91C762.554,-1144.1 717.879,-1127.29 683.154,-1114.22"/>
<polygon fill="black" stroke="black" points="684.235,-1110.89 673.643,-1110.64 681.77,-1117.44 684.235,-1110.89"/>
</g>
<!-- PWB 1.0 -->
<g id="node3" class="node"><title>PWB 1.0</title>
<polygon fill="#eeb422" stroke="#eeb422" points="983.718,-1111.66 945.894,-1111.5 913.578,-1100.59 905.699,-1085.31 927.012,-1074.9 965.031,-1075.44 997.348,-1086.36 1005.03,-1101.25 983.718,-1111.66"/>
<text text-anchor="middle" x="955.414" y="-1089.68" font-family="Helvetica-Outline" font-size="14.00">PWB 1.0</text>
</g>
<!-- 5th Edition&#45;&gt;PWB 1.0 -->
<g id="edge2" class="edge"><title>5th Edition&#45;&gt;PWB 1.0</title>
<path fill="none" stroke="black" d="M855.839,-1155.91C875.477,-1143.77 903.655,-1126.36 925.028,-1113.15"/>
<polygon fill="black" stroke="black" points="927.059,-1116.01 933.726,-1107.78 923.379,-1110.06 927.059,-1116.01"/>
</g>
<!-- LSX -->
<g id="node4" class="node"><title>LSX</title>
<polygon fill="#eec591" stroke="#eec591" points="885.547,-1007.64 872.801,-1017.27 849.04,-1022.48 830.522,-1022.17 818.036,-1014.43 809.549,-1000.85 814.172,-989.106 839.404,-987.212 871.652,-995.587 885.547,-1007.64"/>
<text text-anchor="middle" x="843.414" y="-1002.6" font-family="Helvetica-Outline" font-size="14.00">LSX</text>
</g>
<!-- 6th Edition&#45;&gt;LSX -->
<g id="edge3" class="edge"><title>6th Edition&#45;&gt;LSX</title>
<path fill="none" stroke="black" d="M671.64,-1081.24C704.961,-1071.61 752.689,-1056.35 792.414,-1038 800.64,-1034.2 809.214,-1029.4 816.933,-1024.73"/>
<polygon fill="black" stroke="black" points="818.888,-1027.64 825.529,-1019.38 815.19,-1021.69 818.888,-1027.64"/>
</g>
<!-- 1 BSD -->
<g id="node5" class="node"><title>1 BSD</title>
<polygon fill="#ffd700" stroke="#ffd700" points="242.91,-1011.25 231.223,-1025.59 190.215,-1024.06 156.886,-1009.16 162.456,-993.46 193.884,-986.829 225.321,-993.779 242.91,-1011.25"/>
<text text-anchor="middle" x="200.414" y="-1002.6" font-family="Helvetica-Outline" font-size="14.00">1 BSD</text>
</g>
<!-- 6th Edition&#45;&gt;1 BSD -->
<g id="edge4" class="edge"><title>6th Edition&#45;&gt;1 BSD</title>
<path fill="none" stroke="black" d="M546.818,-1083.57C476.607,-1075.13 374.002,-1060.34 286.414,-1038 272.57,-1034.47 257.814,-1029.62 244.505,-1024.81"/>
<polygon fill="black" stroke="black" points="245.697,-1021.52 235.104,-1021.35 243.275,-1028.09 245.697,-1021.52"/>
</g>
<!-- Mini Unix -->
<g id="node6" class="node"><title>Mini Unix</title>
<polygon fill="greenyellow" stroke="greenyellow" points="593.858,-1024.3 483.378,-1022.91 511.654,-988.339 616.764,-989.667 593.858,-1024.3"/>
<text text-anchor="middle" x="551.414" y="-1002.6" font-family="Helvetica-Outline" font-size="14.00">Mini Unix</text>
</g>
<!-- 6th Edition&#45;&gt;Mini Unix -->
<g id="edge5" class="edge"><title>6th Edition&#45;&gt;Mini Unix</title>
<path fill="none" stroke="black" d="M616.653,-1077.56C604.832,-1064.83 587.565,-1046.23 573.764,-1031.37"/>
<polygon fill="black" stroke="black" points="576.279,-1028.94 566.91,-1023.99 571.15,-1033.7 576.279,-1028.94"/>
</g>
<!-- Wollongong -->
<g id="node7" class="node"><title>Wollongong</title>
<polygon fill="darkseagreen" stroke="darkseagreen" points="725.299,-1025.7 641.888,-1014.05 653.177,-991.694 748.077,-991.654 783.628,-1008.42 725.299,-1025.7"/>
<text text-anchor="middle" x="710.414" y="-1002.6" font-family="Helvetica-Outline" font-size="14.00">Wollongong</text>
</g>
<!-- 6th Edition&#45;&gt;Wollongong -->
<g id="edge6" class="edge"><title>6th Edition&#45;&gt;Wollongong</title>
<path fill="none" stroke="black" d="M642.914,-1079.08C655.452,-1065.75 674.977,-1044.99 689.808,-1029.22"/>
<polygon fill="black" stroke="black" points="692.36,-1031.61 696.661,-1021.93 687.261,-1026.82 692.36,-1031.61"/>
</g>
<!-- Interdata -->
<g id="node8" class="node"><title>Interdata</title>
<polygon fill="#1e90ff" stroke="#1e90ff" points="387.104,-1031.49 295.448,-996.327 397.844,-990.371 441.258,-1007.03 387.104,-1031.49"/>
<text text-anchor="middle" x="380.414" y="-1002.6" font-family="Helvetica-Outline" font-size="14.00">Interdata</text>
</g>
<!-- 6th Edition&#45;&gt;Interdata -->
<g id="edge7" class="edge"><title>6th Edition&#45;&gt;Interdata</title>
<path fill="none" stroke="black" d="M582.802,-1076.17C537.231,-1060.67 469.035,-1037.46 424.631,-1022.35"/>
<polygon fill="black" stroke="black" points="425.579,-1018.98 414.984,-1019.07 423.324,-1025.6 425.579,-1018.98"/>
</g>
<!-- PWB 1.2 -->
<g id="node28" class="node"><title>PWB 1.2</title>
<polygon fill="cyan" stroke="cyan" points="975.073,-1035.8 931.608,-1031.92 903.91,-1001.28 914.996,-974.42 958.676,-979.045 998.939,-1000.87 1004.69,-1020.8 975.073,-1035.8"/>
<text text-anchor="middle" x="955.414" y="-1002.6" font-family="Helvetica-Outline" font-size="14.00">PWB 1.2</text>
</g>
<!-- PWB 1.0&#45;&gt;PWB 1.2 -->
<g id="edge31" class="edge"><title>PWB 1.0&#45;&gt;PWB 1.2</title>
<path fill="none" stroke="black" d="M955.414,-1075.16C955.414,-1066.26 955.414,-1055.03 955.414,-1044.28"/>
<polygon fill="black" stroke="black" points="958.914,-1044.21 955.414,-1034.21 951.914,-1044.21 958.914,-1044.21"/>
</g>
<!-- USG 1.0 -->
<g id="node29" class="node"><title>USG 1.0</title>
<polygon fill="blue" stroke="blue" points="1144.19,-1031.5 1024.75,-1000.44 1117.92,-990.283 1166.79,-1002.99 1144.19,-1031.5"/>
<text text-anchor="middle" x="1113.41" y="-1002.6" font-family="Helvetica-Outline" font-size="14.00">USG 1.0</text>
</g>
<!-- PWB 1.0&#45;&gt;USG 1.0 -->
<g id="edge32" class="edge"><title>PWB 1.0&#45;&gt;USG 1.0</title>
<path fill="none" stroke="black" d="M978.727,-1079.82C1006.73,-1064.74 1053.73,-1039.44 1084.15,-1023.06"/>
<polygon fill="black" stroke="black" points="1085.88,-1026.11 1093.02,-1018.28 1082.56,-1019.94 1085.88,-1026.11"/>
</g>
<!-- 2 BSD -->
<g id="node19" class="node"><title>2 BSD</title>
<polygon fill="blanchedalmond" stroke="blanchedalmond" points="126.486,-574.997 91.9138,-574.32 73.561,-561.409 85.2181,-545.862 118.078,-539.263 147.438,-546.76 151.201,-562.752 126.486,-574.997"/>
<text text-anchor="middle" x="113.414" y="-554.209" font-family="Helvetica-Outline" font-size="14.00">2 BSD</text>
</g>
<!-- 1 BSD&#45;&gt;2 BSD -->
<g id="edge19" class="edge"><title>1 BSD&#45;&gt;2 BSD</title>
<path fill="none" stroke="black" d="M189.35,-987.546C170.32,-955.253 133.414,-884.197 133.414,-818.839 133.414,-818.839 133.414,-818.839 133.414,-725.044 133.414,-675.191 124.427,-617.524 118.502,-584.919"/>
<polygon fill="black" stroke="black" points="121.902,-584.058 116.627,-574.87 115.02,-585.342 121.902,-584.058"/>
</g>
<!-- Unix/TS 3.0 -->
<g id="node9" class="node"><title>Unix/TS 3.0</title>
<polygon fill="#eed2ee" stroke="#eed2ee" points="956.063,-741.495 927.088,-752.56 848.012,-744.654 765.156,-722.41 752.66,-705.731 817.844,-704.388 896.92,-712.294 943.567,-724.817 956.063,-741.495"/>
<text text-anchor="middle" x="863.414" y="-722.344" font-family="Helvetica-Outline" font-size="14.00">Unix/TS 3.0</text>
</g>
<!-- Interdata&#45;&gt;Unix/TS 3.0 -->
<g id="edge8" class="edge"><title>Interdata&#45;&gt;Unix/TS 3.0</title>
<path fill="none" stroke="black" d="M403.988,-992.592C452.614,-966.241 567.37,-903.386 661.414,-846.727 702.128,-822.197 710.591,-813.301 751.414,-788.952 776.29,-774.114 804.877,-758.332 826.944,-746.417"/>
<polygon fill="black" stroke="black" points="828.823,-749.38 835.971,-741.561 825.507,-743.216 828.823,-749.38"/>
</g>
<!-- PWB 2.0 -->
<g id="node10" class="node"><title>PWB 2.0</title>
<polygon fill="#a2cd5a" stroke="#a2cd5a" points="867.072,-927.431 802.34,-931.062 713.743,-910.045 725.755,-893.908 808.426,-894.533 861.146,-907.039 867.072,-927.431"/>
<text text-anchor="middle" x="796.414" y="-906.97" font-family="Helvetica-Outline" font-size="14.00">PWB 2.0</text>
</g>
<!-- Interdata&#45;&gt;PWB 2.0 -->
<g id="edge9" class="edge"><title>Interdata&#45;&gt;PWB 2.0</title>
<path fill="none" stroke="black" d="M409.291,-994.572C427.715,-988.051 452.22,-979.976 474.414,-974.613 572.852,-950.823 600.469,-960.199 699.414,-938.613 717.09,-934.756 736.332,-929.614 752.982,-924.855"/>
<polygon fill="black" stroke="black" points="754.347,-928.103 762.977,-921.957 752.398,-921.38 754.347,-928.103"/>
</g>
<!-- 7th Edition -->
<g id="node11" class="node"><title>7th Edition</title>
<polygon fill="chocolate" stroke="chocolate" points="430.111,-918.485 409.347,-929.878 377.531,-933.934 344.209,-927.373 323.104,-913.362 325.501,-899.392 351.481,-891.462 388.511,-890.867 419.842,-896.106 434.5,-905.838 430.111,-918.485"/>
<text text-anchor="middle" x="380.414" y="-906.97" font-family="Helvetica-Outline" font-size="14.00">7th Edition</text>
</g>
<!-- Interdata&#45;&gt;7th Edition -->
<g id="edge10" class="edge"><title>Interdata&#45;&gt;7th Edition</title>
<path fill="none" stroke="black" d="M380.414,-991.084C380.414,-978.577 380.414,-959.91 380.414,-943.816"/>
<polygon fill="black" stroke="black" points="383.914,-943.703 380.414,-933.703 376.914,-943.703 383.914,-943.703"/>
</g>
<!-- TS 4.0 -->
<g id="node38" class="node"><title>TS 4.0</title>
<polygon fill="crimson" stroke="crimson" points="994.614,-579.138 973.43,-583.918 934.288,-578.763 897.806,-568.778 875.754,-556.579 869.55,-542.951 879.397,-531.9 907.203,-530.784 948.015,-543.165 984.079,-563.115 994.614,-579.138"/>
<text text-anchor="middle" x="926.414" y="-554.209" font-family="Helvetica-Outline" font-size="14.00">TS 4.0</text>
</g>
<!-- Unix/TS 3.0&#45;&gt;TS 4.0 -->
<g id="edge44" class="edge"><title>Unix/TS 3.0&#45;&gt;TS 4.0</title>
<path fill="none" stroke="black" d="M869.341,-709.414C880.213,-680.742 903.442,-619.487 916.668,-584.608"/>
<polygon fill="black" stroke="black" points="919.998,-585.698 920.271,-575.107 913.453,-583.216 919.998,-585.698"/>
</g>
<!-- PWB 2.0&#45;&gt;Unix/TS 3.0 -->
<g id="edge42" class="edge"><title>PWB 2.0&#45;&gt;Unix/TS 3.0</title>
<path fill="none" stroke="black" d="M784.721,-894.309C768.128,-870.485 741.827,-823.751 761.414,-788.952 773.396,-767.662 795.987,-752.849 816.868,-743.064"/>
<polygon fill="black" stroke="black" points="818.553,-746.146 826.297,-738.916 815.734,-739.739 818.553,-746.146"/>
</g>
<!-- 8th Edition -->
<g id="node12" class="node"><title>8th Edition</title>
<polygon fill="#00c5cd" stroke="#00c5cd" points="683.838,-480.816 631.032,-466.196 667.408,-436.728 819.376,-478.801 683.838,-480.816"/>
<text text-anchor="middle" x="700.414" y="-461.935" font-family="Helvetica-Outline" font-size="14.00">8th Edition</text>
</g>
<!-- 7th Edition&#45;&gt;8th Edition -->
<g id="edge11" class="edge"><title>7th Edition&#45;&gt;8th Edition</title>
<path fill="none" stroke="black" d="M425.181,-899.645C494.717,-883.886 621.479,-854.324 628.414,-846.727 664.724,-806.948 647.414,-780.902 647.414,-727.044 647.414,-727.044 647.414,-727.044 647.414,-641.053 647.414,-585.125 672.67,-523.298 688.313,-490.367"/>
<polygon fill="black" stroke="black" points="691.587,-491.636 692.82,-481.113 685.294,-488.571 691.587,-491.636"/>
</g>
<!-- 32V -->
<g id="node13" class="node"><title>32V</title>
<polygon fill="#4f94cd" stroke="#4f94cd" points="614.885,-822.91 617.654,-839.472 570.109,-836.438 523.547,-819.4 528.523,-804.491 558.902,-798.163 586.276,-804.001 614.885,-822.91"/>
<text text-anchor="middle" x="571.414" y="-814.139" font-family="Helvetica-Outline" font-size="14.00">32V</text>
</g>
<!-- 7th Edition&#45;&gt;32V -->
<g id="edge12" class="edge"><title>7th Edition&#45;&gt;32V</title>
<path fill="none" stroke="black" d="M412.429,-894.805C439.619,-882.14 479.649,-863.395 514.414,-846.727 523.168,-842.53 532.65,-837.917 541.321,-833.673"/>
<polygon fill="black" stroke="black" points="542.902,-836.796 550.338,-829.249 539.819,-830.511 542.902,-836.796"/>
</g>
<!-- V7M -->
<g id="node14" class="node"><title>V7M</title>
<polygon fill="navy" stroke="navy" points="100.741,-732.404 94.6401,-742.559 71.6459,-746.406 49.1842,-745.702 32.5335,-739.484 17.3711,-726.138 6.18737,-709.528 11.8966,-699.227 40.9606,-702.396 78.9766,-716.592 100.741,-732.404"/>
<text text-anchor="middle" x="50.4137" y="-722.344" font-family="Helvetica-Outline" font-size="14.00">V7M</text>
</g>
<!-- 7th Edition&#45;&gt;V7M -->
<g id="edge13" class="edge"><title>7th Edition&#45;&gt;V7M</title>
<path fill="none" stroke="black" d="M324.775,-901.234C279.854,-892.605 216.302,-876.167 167.414,-846.727 127.259,-822.546 91.2535,-781.318 70.1118,-754.127"/>
<polygon fill="black" stroke="black" points="72.89,-751.998 64.0397,-746.174 67.3262,-756.246 72.89,-751.998"/>
</g>
<!-- Ultrix&#45;11 -->
<g id="node15" class="node"><title>Ultrix&#45;11</title>
<polygon fill="#698b69" stroke="#698b69" points="176.544,-364.965 178.194,-375.895 155.482,-385.154 127.351,-389.909 100.624,-388.075 72.8189,-379.482 50.6335,-367.143 52.81,-356.476 88.7847,-352.259 140.895,-355.834 176.544,-364.965"/>
<text text-anchor="middle" x="114.414" y="-367.819" font-family="Helvetica-Outline" font-size="14.00">Ultrix&#45;11</text>
</g>
<!-- 7th Edition&#45;&gt;Ultrix&#45;11 -->
<g id="edge14" class="edge"><title>7th Edition&#45;&gt;Ultrix&#45;11</title>
<path fill="none" stroke="black" d="M324.326,-905.01C283.74,-898.549 230.87,-883.186 200.414,-846.727 165.885,-805.392 181.414,-780.902 181.414,-727.044 181.414,-727.044 181.414,-727.044 181.414,-556.909 181.414,-497.601 150.416,-433.665 130.588,-398.836"/>
<polygon fill="black" stroke="black" points="133.388,-396.688 125.328,-389.812 127.341,-400.214 133.388,-396.688"/>
</g>
<!-- Xenix -->
<g id="node16" class="node"><title>Xenix</title>
<polygon fill="coral" stroke="coral" points="302.888,-836.383 271.401,-838.136 234.522,-829.83 213.854,-816.33 215.902,-801.884 239.464,-794.954 276.343,-803.26 304.935,-821.937 302.888,-836.383"/>
<text text-anchor="middle" x="257.414" y="-814.139" font-family="Helvetica-Outline" font-size="14.00">Xenix</text>
</g>
<!-- 7th Edition&#45;&gt;Xenix -->
<g id="edge15" class="edge"><title>7th Edition&#45;&gt;Xenix</title>
<path fill="none" stroke="black" d="M355.523,-891.289C337.014,-877.621 311.549,-858.816 291.202,-843.79"/>
<polygon fill="black" stroke="black" points="293.238,-840.943 283.114,-837.818 289.079,-846.574 293.238,-840.943"/>
</g>
<!-- UniPlus+ -->
<g id="node17" class="node"><title>UniPlus+</title>
<polygon fill="#a2cd5a" stroke="#a2cd5a" points="483.491,-832.06 451.639,-842.659 371.196,-828.807 323.297,-806.696 364.57,-798.737 434.226,-802.598 472.476,-813.316 483.491,-832.06"/>
<text text-anchor="middle" x="414.414" y="-814.139" font-family="Helvetica-Outline" font-size="14.00">UniPlus+</text>
</g>
<!-- 7th Edition&#45;&gt;UniPlus+ -->
<g id="edge16" class="edge"><title>7th Edition&#45;&gt;UniPlus+</title>
<path fill="none" stroke="black" d="M387.459,-890.85C392.453,-877.508 399.216,-859.439 404.719,-844.739"/>
<polygon fill="black" stroke="black" points="408.062,-845.792 408.29,-835.199 401.506,-843.338 408.062,-845.792"/>
</g>
<!-- 9th Edition -->
<g id="node18" class="node"><title>9th Edition</title>
<polygon fill="#cd5b45" stroke="#cd5b45" points="783.414,-385.33 743.51,-395.101 692.839,-385.802 672.721,-365.748 701.471,-351.352 752.865,-351.558 787.075,-365.743 783.414,-385.33"/>
<text text-anchor="middle" x="733.414" y="-367.819" font-family="Helvetica-Outline" font-size="14.00">9th Edition</text>
</g>
<!-- 8th Edition&#45;&gt;9th Edition -->
<g id="edge18" class="edge"><title>8th Edition&#45;&gt;9th Edition</title>
<path fill="none" stroke="black" d="M706.621,-447.309C711.202,-434.521 717.546,-416.812 722.911,-401.837"/>
<polygon fill="black" stroke="black" points="726.357,-402.595 726.435,-392 719.767,-400.234 726.357,-402.595"/>
</g>
<!-- 3 BSD -->
<g id="node22" class="node"><title>3 BSD</title>
<polygon fill="lemonchiffon" stroke="lemonchiffon" points="602.182,-721.922 601.633,-733.364 583.813,-742.01 552.356,-744.044 520.489,-738.885 504.304,-729.138 511.194,-718.723 535.356,-711.104 564.391,-708.678 588.419,-712.568 602.182,-721.922"/>
<text text-anchor="middle" x="556.414" y="-722.344" font-family="Helvetica-Outline" font-size="14.00">3 BSD</text>
</g>
<!-- 32V&#45;&gt;3 BSD -->
<g id="edge23" class="edge"><title>32V&#45;&gt;3 BSD</title>
<path fill="none" stroke="black" d="M568.592,-799.949C566.434,-787.031 563.416,-768.962 560.924,-754.044"/>
<polygon fill="black" stroke="black" points="564.322,-753.144 559.222,-743.858 557.418,-754.298 564.322,-753.144"/>
</g>
<!-- V7M&#45;&gt;Ultrix&#45;11 -->
<g id="edge17" class="edge"><title>V7M&#45;&gt;Ultrix&#45;11</title>
<path fill="none" stroke="black" d="M50.3192,-705.832C50.4728,-670.747 52.3202,-594.094 64.4137,-530.847 73.5577,-483.025 92.4016,-429.384 104.165,-398.421"/>
<polygon fill="black" stroke="black" points="107.531,-399.421 107.859,-388.831 100.998,-396.905 107.531,-399.421"/>
</g>
<!-- 2.8 BSD -->
<g id="node20" class="node"><title>2.8 BSD</title>
<polygon fill="#b0e2ff" stroke="#b0e2ff" points="274.352,-482.835 219.79,-467.321 267.892,-445.426 343.621,-466.959 274.352,-482.835"/>
<text text-anchor="middle" x="276.414" y="-461.935" font-family="Helvetica-Outline" font-size="14.00">2.8 BSD</text>
</g>
<!-- 2 BSD&#45;&gt;2.8 BSD -->
<g id="edge20" class="edge"><title>2 BSD&#45;&gt;2.8 BSD</title>
<path fill="none" stroke="black" d="M136.768,-543.975C165.931,-527.823 215.822,-500.192 247.406,-482.701"/>
<polygon fill="black" stroke="black" points="249.134,-485.744 256.186,-477.838 245.743,-479.621 249.134,-485.744"/>
</g>
<!-- 2.8 BSD&#45;&gt;Ultrix&#45;11 -->
<g id="edge21" class="edge"><title>2.8 BSD&#45;&gt;Ultrix&#45;11</title>
<path fill="none" stroke="black" d="M253.547,-451.633C226.636,-436.331 181.633,-410.741 150.115,-392.82"/>
<polygon fill="black" stroke="black" points="151.63,-389.654 141.207,-387.754 148.169,-395.74 151.63,-389.654"/>
</g>
<!-- 2.9 BSD -->
<g id="node21" class="node"><title>2.9 BSD</title>
<polygon fill="#76eec6" stroke="#76eec6" points="248.32,-386.111 213.767,-358.436 286.754,-342.709 356.814,-398.821 248.32,-386.111"/>
<text text-anchor="middle" x="276.414" y="-367.819" font-family="Helvetica-Outline" font-size="14.00">2.9 BSD</text>
</g>
<!-- 2.8 BSD&#45;&gt;2.9 BSD -->
<g id="edge22" class="edge"><title>2.8 BSD&#45;&gt;2.9 BSD</title>
<path fill="none" stroke="black" d="M276.414,-447.74C276.414,-434.32 276.414,-415.289 276.414,-399.727"/>
<polygon fill="black" stroke="black" points="279.914,-399.619 276.414,-389.619 272.914,-399.619 279.914,-399.619"/>
</g>
<!-- 4 BSD -->
<g id="node23" class="node"><title>4 BSD</title>
<polygon fill="#ff7f00" stroke="#ff7f00" points="567.77,-654.619 513.912,-658.457 485.623,-639.625 504.135,-620.889 590.629,-636.676 567.77,-654.619"/>
<text text-anchor="middle" x="532.414" y="-638.353" font-family="Helvetica-Outline" font-size="14.00">4 BSD</text>
</g>
<!-- 3 BSD&#45;&gt;4 BSD -->
<g id="edge24" class="edge"><title>3 BSD&#45;&gt;4 BSD</title>
<path fill="none" stroke="black" d="M551.899,-709.622C548.372,-697.571 543.408,-680.612 539.373,-666.827"/>
<polygon fill="black" stroke="black" points="542.676,-665.653 536.508,-657.039 535.958,-667.619 542.676,-665.653"/>
</g>
<!-- 4.1 BSD -->
<g id="node24" class="node"><title>4.1 BSD</title>
<polygon fill="#ffffe0" stroke="#ffffe0" points="510.294,-578.328 436.134,-561.458 461.535,-534.987 557.692,-556.862 510.294,-578.328"/>
<text text-anchor="middle" x="491.414" y="-554.209" font-family="Helvetica-Outline" font-size="14.00">4.1 BSD</text>
</g>
<!-- 4 BSD&#45;&gt;4.1 BSD -->
<g id="edge25" class="edge"><title>4 BSD&#45;&gt;4.1 BSD</title>
<path fill="none" stroke="black" d="M524.117,-624.43C518.523,-613.223 511.023,-598.197 504.617,-585.361"/>
<polygon fill="black" stroke="black" points="507.578,-583.457 499.981,-576.073 501.315,-586.583 507.578,-583.457"/>
</g>
<!-- 4.1 BSD&#45;&gt;8th Edition -->
<g id="edge28" class="edge"><title>4.1 BSD&#45;&gt;8th Edition</title>
<path fill="none" stroke="black" d="M514.579,-546.903C550.94,-531.198 621.684,-500.641 664.625,-482.093"/>
<polygon fill="black" stroke="black" points="666.072,-485.281 673.864,-478.103 663.296,-478.855 666.072,-485.281"/>
</g>
<!-- 4.1 BSD&#45;&gt;2.8 BSD -->
<g id="edge27" class="edge"><title>4.1 BSD&#45;&gt;2.8 BSD</title>
<path fill="none" stroke="black" d="M454.942,-541.595C414.408,-524.576 349.489,-497.318 310.111,-480.784"/>
<polygon fill="black" stroke="black" points="311.255,-477.469 300.68,-476.824 308.545,-483.923 311.255,-477.469"/>
</g>
<!-- 4.2 BSD -->
<g id="node25" class="node"><title>4.2 BSD</title>
<polygon fill="#68228b" stroke="#68228b" points="563.76,-488.779 537.993,-493.223 489.851,-487.13 446.14,-476.792 420.342,-464.642 411.904,-450.421 420.834,-438.047 452.14,-436.211 502.282,-449.578 548.891,-471.529 563.76,-488.779"/>
<text text-anchor="middle" x="479.414" y="-461.935" font-family="Helvetica-Outline" font-size="14.00">4.2 BSD</text>
</g>
<!-- 4.1 BSD&#45;&gt;4.2 BSD -->
<g id="edge26" class="edge"><title>4.1 BSD&#45;&gt;4.2 BSD</title>
<path fill="none" stroke="black" d="M489.323,-541.184C487.643,-528.543 485.238,-510.45 483.218,-495.254"/>
<polygon fill="black" stroke="black" points="486.682,-494.751 481.895,-485.299 479.743,-495.673 486.682,-494.751"/>
</g>
<!-- 4.3 BSD -->
<g id="node26" class="node"><title>4.3 BSD</title>
<polygon fill="#eee9bf" stroke="#eee9bf" points="648.245,-384.206 626.539,-396.363 598.291,-399.03 574.422,-391.377 563.999,-376.256 570.843,-359.209 592.289,-346.675 620.276,-343.631 644.244,-351.428 654.989,-367.015 648.245,-384.206"/>
<text text-anchor="middle" x="609.414" y="-367.819" font-family="Helvetica-Outline" font-size="14.00">4.3 BSD</text>
</g>
<!-- 4.2 BSD&#45;&gt;4.3 BSD -->
<g id="edge29" class="edge"><title>4.2 BSD&#45;&gt;4.3 BSD</title>
<path fill="none" stroke="black" d="M501.173,-449.217C520.272,-435.683 548.488,-415.69 571.323,-399.509"/>
<polygon fill="black" stroke="black" points="573.646,-402.154 579.781,-393.516 569.598,-396.442 573.646,-402.154"/>
</g>
<!-- Ultrix&#45;32 -->
<g id="node27" class="node"><title>Ultrix&#45;32</title>
<polygon fill="#cd9b1d" stroke="#cd9b1d" points="489.017,-388.292 412.89,-379.868 394.329,-350.599 545.419,-367.318 489.017,-388.292"/>
<text text-anchor="middle" x="460.414" y="-367.819" font-family="Helvetica-Outline" font-size="14.00">Ultrix&#45;32</text>
</g>
<!-- 4.2 BSD&#45;&gt;Ultrix&#45;32 -->
<g id="edge30" class="edge"><title>4.2 BSD&#45;&gt;Ultrix&#45;32</title>
<path fill="none" stroke="black" d="M474.717,-441.865C471.81,-427.77 468.088,-409.726 465.17,-395.577"/>
<polygon fill="black" stroke="black" points="468.569,-394.734 463.121,-385.647 461.714,-396.148 468.569,-394.734"/>
</g>
<!-- PWB 1.2&#45;&gt;PWB 2.0 -->
<g id="edge33" class="edge"><title>PWB 1.2&#45;&gt;PWB 2.0</title>
<path fill="none" stroke="black" d="M912.386,-979.966C888.678,-966.004 859.445,-948.789 836.26,-935.135"/>
<polygon fill="black" stroke="black" points="837.767,-931.961 827.374,-929.902 834.215,-937.993 837.767,-931.961"/>
</g>
<!-- CB Unix 1 -->
<g id="node30" class="node"><title>CB Unix 1</title>
<polygon fill="firebrick" stroke="firebrick" points="1265.57,-918.667 1252.55,-931.022 1216.77,-934.494 1178.93,-928.662 1150.68,-914.411 1139.17,-896.566 1153.74,-884.68 1195.01,-886.576 1242.31,-900.949 1265.57,-918.667"/>
<text text-anchor="middle" x="1199.41" y="-906.97" font-family="Helvetica-Outline" font-size="14.00">CB Unix 1</text>
</g>
<!-- USG 1.0&#45;&gt;CB Unix 1 -->
<g id="edge34" class="edge"><title>USG 1.0&#45;&gt;CB Unix 1</title>
<path fill="none" stroke="black" d="M1125.74,-991.889C1138.78,-977.681 1159.7,-954.909 1175.92,-937.251"/>
<polygon fill="black" stroke="black" points="1178.81,-939.28 1182.99,-929.547 1173.65,-934.545 1178.81,-939.28"/>
</g>
<!-- USG 2.0 -->
<g id="node31" class="node"><title>USG 2.0</title>
<polygon fill="#458b00" stroke="#458b00" points="972.407,-937.65 917.814,-882.784 1023.28,-896.616 1052.15,-925.629 972.407,-937.65"/>
<text text-anchor="middle" x="991.414" y="-906.97" font-family="Helvetica-Outline" font-size="14.00">USG 2.0</text>
</g>
<!-- USG 1.0&#45;&gt;USG 2.0 -->
<g id="edge35" class="edge"><title>USG 1.0&#45;&gt;USG 2.0</title>
<path fill="none" stroke="black" d="M1096.71,-992.482C1078.26,-978.324 1048.09,-955.167 1024.76,-937.263"/>
<polygon fill="black" stroke="black" points="1026.89,-934.484 1016.82,-931.172 1022.63,-940.037 1026.89,-934.484"/>
</g>
<!-- CB Unix 2 -->
<g id="node32" class="node"><title>CB Unix 2</title>
<polygon fill="greenyellow" stroke="greenyellow" points="1285.52,-816.287 1293.61,-830.51 1279.09,-839.893 1234.07,-837.977 1180.87,-826.59 1156.43,-813.639 1175.21,-805.168 1216.61,-801.538 1251.37,-801.257 1271.35,-805.533 1285.52,-816.287"/>
<text text-anchor="middle" x="1234.41" y="-814.139" font-family="Helvetica-Outline" font-size="14.00">CB Unix 2</text>
</g>
<!-- CB Unix 1&#45;&gt;CB Unix 2 -->
<g id="edge36" class="edge"><title>CB Unix 1&#45;&gt;CB Unix 2</title>
<path fill="none" stroke="black" d="M1207.01,-889.961C1211.93,-877.197 1218.4,-860.395 1223.82,-846.326"/>
<polygon fill="black" stroke="black" points="1227.22,-847.252 1227.55,-836.663 1220.68,-844.735 1227.22,-847.252"/>
</g>
<!-- USG 3.0 -->
<g id="node36" class="node"><title>USG 3.0</title>
<polygon fill="#eed5b7" stroke="#eed5b7" points="865.52,-836.047 808.308,-820.225 823.096,-789.064 956.731,-826.022 865.52,-836.047"/>
<text text-anchor="middle" x="863.414" y="-814.139" font-family="Helvetica-Outline" font-size="14.00">USG 3.0</text>
</g>
<!-- USG 2.0&#45;&gt;USG 3.0 -->
<g id="edge40" class="edge"><title>USG 2.0&#45;&gt;USG 3.0</title>
<path fill="none" stroke="black" d="M961.403,-888.374C940.843,-873.784 913.689,-854.515 893.181,-839.962"/>
<polygon fill="black" stroke="black" points="895.018,-836.974 884.837,-834.041 890.967,-842.683 895.018,-836.974"/>
</g>
<!-- CB Unix 3 -->
<g id="node33" class="node"><title>CB Unix 3</title>
<polygon fill="#8b7d6b" stroke="#8b7d6b" points="1204.5,-724.38 1223.22,-739.867 1213.75,-750.074 1163.52,-748.07 1097.89,-735.779 1061.95,-721.643 1075.6,-712.22 1117.45,-708.077 1155.32,-707.765 1180.92,-712.561 1204.5,-724.38"/>
<text text-anchor="middle" x="1149.41" y="-722.344" font-family="Helvetica-Outline" font-size="14.00">CB Unix 3</text>
</g>
<!-- CB Unix 2&#45;&gt;CB Unix 3 -->
<g id="edge37" class="edge"><title>CB Unix 2&#45;&gt;CB Unix 3</title>
<path fill="none" stroke="black" d="M1219.61,-801.198C1207.86,-788.789 1191.12,-771.099 1176.93,-756.109"/>
<polygon fill="black" stroke="black" points="1179.2,-753.415 1169.78,-748.559 1174.11,-758.227 1179.2,-753.415"/>
</g>
<!-- Unix/TS++ -->
<g id="node34" class="node"><title>Unix/TS++</title>
<polygon fill="#eed5d2" stroke="#eed5d2" points="1118,-648.557 1082.17,-661.825 976.724,-653.419 954.831,-635.55 1014.52,-624.184 1072.24,-628.785 1118,-648.557"/>
<text text-anchor="middle" x="1036.41" y="-638.353" font-family="Helvetica-Outline" font-size="14.00">Unix/TS++</text>
</g>
<!-- CB Unix 3&#45;&gt;Unix/TS++ -->
<g id="edge38" class="edge"><title>CB Unix 3&#45;&gt;Unix/TS++</title>
<path fill="none" stroke="black" d="M1125.73,-707.856C1109.15,-695.83 1086.81,-679.622 1068.62,-666.424"/>
<polygon fill="black" stroke="black" points="1070.22,-663.258 1060.07,-660.218 1066.11,-668.924 1070.22,-663.258"/>
</g>
<!-- PDP&#45;11 Sys V -->
<g id="node35" class="node"><title>PDP&#45;11 Sys V</title>
<polygon fill="#98f5ff" stroke="#98f5ff" points="1286.69,-646.784 1262.31,-657.32 1216.29,-661.187 1174.2,-657.466 1149.52,-646.533 1147.59,-632.139 1173.36,-621.91 1222.41,-622.307 1270.37,-632.834 1286.69,-646.784"/>
<text text-anchor="middle" x="1211.41" y="-638.353" font-family="Helvetica-Outline" font-size="14.00">PDP&#45;11 Sys V</text>
</g>
<!-- CB Unix 3&#45;&gt;PDP&#45;11 Sys V -->
<g id="edge39" class="edge"><title>CB Unix 3&#45;&gt;PDP&#45;11 Sys V</title>
<path fill="none" stroke="black" d="M1161.66,-708.845C1170.46,-697.207 1182.49,-681.298 1192.52,-668.04"/>
<polygon fill="black" stroke="black" points="1195.52,-669.868 1198.76,-659.781 1189.94,-665.646 1195.52,-669.868"/>
</g>
<!-- CB Unix 3&#45;&gt;TS 4.0 -->
<g id="edge46" class="edge"><title>CB Unix 3&#45;&gt;TS 4.0</title>
<path fill="none" stroke="black" d="M1064.69,-719.571C1023.01,-712.412 975.405,-696.767 945.414,-663.135 926.92,-642.396 923.637,-609.837 924.052,-586.631"/>
<polygon fill="black" stroke="black" points="927.56,-586.532 924.482,-576.394 920.566,-586.238 927.56,-586.532"/>
</g>
<!-- Unix/TS++&#45;&gt;TS 4.0 -->
<g id="edge45" class="edge"><title>Unix/TS++&#45;&gt;TS 4.0</title>
<path fill="none" stroke="black" d="M1013.89,-624.232C999.972,-613.839 981.733,-600.22 965.514,-588.107"/>
<polygon fill="black" stroke="black" points="967.356,-585.115 957.249,-581.936 963.167,-590.724 967.356,-585.115"/>
</g>
<!-- USG 3.0&#45;&gt;Unix/TS 3.0 -->
<g id="edge41" class="edge"><title>USG 3.0&#45;&gt;Unix/TS 3.0</title>
<path fill="none" stroke="black" d="M863.414,-799.949C863.414,-787.804 863.414,-771.106 863.414,-756.755"/>
<polygon fill="black" stroke="black" points="866.914,-756.352 863.414,-746.352 859.914,-756.352 866.914,-756.352"/>
</g>
<!-- Unix/TS 1.0 -->
<g id="node37" class="node"><title>Unix/TS 1.0</title>
<polygon fill="orangered" stroke="orangered" points="1016.89,-837.378 974.803,-805.763 1103.02,-803.619 1130.94,-824.597 1016.89,-837.378"/>
<text text-anchor="middle" x="1056.41" y="-814.139" font-family="Helvetica-Outline" font-size="14.00">Unix/TS 1.0</text>
</g>
<!-- Unix/TS 1.0&#45;&gt;Unix/TS 3.0 -->
<g id="edge43" class="edge"><title>Unix/TS 1.0&#45;&gt;Unix/TS 3.0</title>
<path fill="none" stroke="black" d="M1030.38,-804.729C1003.56,-792.249 960.763,-772.336 925.213,-755.797"/>
<polygon fill="black" stroke="black" points="926.416,-752.496 915.873,-751.451 923.463,-758.843 926.416,-752.496"/>
</g>
<!-- System V.0 -->
<g id="node39" class="node"><title>System V.0</title>
<polygon fill="#ff7f00" stroke="#ff7f00" points="1006.58,-467.635 984.386,-478.707 934.888,-483.635 880.92,-480.06 848.239,-469.735 852.642,-457.573 891.738,-449.211 946.616,-448.464 991.711,-455.698 1006.58,-467.635"/>
<text text-anchor="middle" x="926.414" y="-461.935" font-family="Helvetica-Outline" font-size="14.00">System V.0</text>
</g>
<!-- TS 4.0&#45;&gt;System V.0 -->
<g id="edge47" class="edge"><title>TS 4.0&#45;&gt;System V.0</title>
<path fill="none" stroke="black" d="M926.414,-536.424C926.414,-523.7 926.414,-507.204 926.414,-493.446"/>
<polygon fill="black" stroke="black" points="929.914,-493.122 926.414,-483.122 922.914,-493.122 929.914,-493.122"/>
</g>
<!-- System V.2 -->
<g id="node40" class="node"><title>System V.2</title>
<polygon fill="#6e8b3d" stroke="#6e8b3d" points="1018.79,-388.385 951.663,-394.849 821.618,-371.105 834.039,-354.653 938.835,-355.067 993.539,-365.055 1018.79,-388.385"/>
<text text-anchor="middle" x="926.414" y="-367.819" font-family="Helvetica-Outline" font-size="14.00">System V.2</text>
</g>
<!-- System V.0&#45;&gt;System V.2 -->
<g id="edge48" class="edge"><title>System V.0&#45;&gt;System V.2</title>
<path fill="none" stroke="black" d="M926.414,-448.59C926.414,-435.355 926.414,-416.265 926.414,-400.519"/>
<polygon fill="black" stroke="black" points="929.914,-400.266 926.414,-390.266 922.914,-400.266 929.914,-400.266"/>
</g>
<!-- System V.3 -->
<g id="node41" class="node"><title>System V.3</title>
<polygon fill="#cae1ff" stroke="#cae1ff" points="984.978,-302.819 917.16,-300.044 870.922,-291.404 866.47,-276.667 892.546,-260.191 950.627,-264.122 1002.19,-287.903 984.978,-302.819"/>
<text text-anchor="middle" x="926.414" y="-279.607" font-family="Helvetica-Outline" font-size="14.00">System V.3</text>
</g>
<!-- System V.2&#45;&gt;System V.3 -->
<g id="edge49" class="edge"><title>System V.2&#45;&gt;System V.3</title>
<path fill="none" stroke="black" d="M926.414,-354.706C926.414,-342.466 926.414,-325.237 926.414,-310.887"/>
<polygon fill="black" stroke="black" points="929.914,-310.605 926.414,-300.605 922.914,-310.605 929.914,-310.605"/>
</g>
</g>
</svg>
